<svg xmlns="http://www.w3.org/2000/svg" width="27" height="28">
	<path fill="#ffffffaf" stroke="null" id="svg_1" d="m23.87435,15.92883l2.34185,1.35177c0.26746,0.15436 0.39159,0.47358 0.29998,0.76851c-0.60832,1.95861 -1.64692,3.72808 -3.00529,5.19772a0.66031,0.66031 0 0 1 -0.81506,0.12386l-2.34008,-1.35155a10.52761,10.52761 0 0 1 -3.33885,1.93048l0,2.70267a0.65998,0.65998 0 0 1 -0.51529,0.64393c-1.92092,0.43138 -3.98399,0.45369 -6.00184,0.00039c-0.30169,-0.06776 -0.51672,-0.33499 -0.51672,-0.64421l0,-2.70278a10.5264,10.5264 0 0 1 -3.33885,-1.93048l-2.34009,1.35155a0.66031,0.66031 0 0 1 -0.81505,-0.12386c-1.35831,-1.46964 -2.39697,-3.23911 -3.00529,-5.19772c-0.09161,-0.29487 0.03253,-0.61409 0.29998,-0.76851l2.34191,-1.35177a10.63218,10.63218 0 0 1 0,-3.8576l-2.34185,-1.35177c-0.26745,-0.15436 -0.39159,-0.47358 -0.29999,-0.76851c0.60832,-1.95861 1.64692,-3.72808 3.00529,-5.19773a0.66031,0.66031 0 0 1 0.81506,-0.12386l2.34009,1.35155a10.52761,10.52761 0 0 1 3.33885,-1.93048l0,-2.70272a0.65998,0.65998 0 0 1 0.51529,-0.64393c1.92092,-0.43138 3.98399,-0.45369 6.00184,-0.00038c0.30168,0.06776 0.51671,0.33499 0.51671,0.64421l0,2.70278a10.5264,10.5264 0 0 1 3.33885,1.93048l2.34009,-1.35155a0.66031,0.66031 0 0 1 0.81505,0.12386c1.35831,1.46965 2.39697,3.23911 3.00529,5.19772c0.09161,0.29488 -0.03253,0.61409 -0.29998,0.76851l-2.34191,1.35178a10.63246,10.63246 0 0 1 0,3.85766l0,0zm-5.97816,-1.92883c0,-2.42406 -1.97213,-4.39619 -4.39618,-4.39619s-4.39619,1.97213 -4.39619,4.39619s1.97213,4.39619 4.39619,4.39619s4.39618,-1.97213 4.39618,-4.39619z"/>
</svg>